<?xml version="1.0" encoding="UTF-8"?>
<svg xmlns="http://www.w3.org/2000/svg" version="1.1" viewBox="0 0 800 800">
  <defs>
    <style>
      .cls-1 {
        fill: #dacbb6;
        fill-rule: evenodd;
      }
    </style>
  </defs>
  <!-- Generator: Adobe Illustrator 28.6.0, SVG Export Plug-In . SVG Version: 1.2.0 Build 709)  -->
  <g>
    <g id="meteor-icon-kit__solid-instagram">
      <path class="cls-1" d="M399.9,27.5c-101.2,0-113.9.4-153.6,2.2-39.7,1.8-66.8,8.1-90.5,17.3-24.5,9.5-45.3,22.3-66,43-20.7,20.7-33.5,41.5-43,66-9.2,23.7-15.5,50.8-17.3,90.5-1.8,39.7-2.2,52.4-2.2,153.6s.4,113.9,2.2,153.6c1.8,39.7,8.1,66.8,17.3,90.5,9.5,24.5,22.3,45.3,43,66,20.7,20.7,41.5,33.5,66,43,23.7,9.2,50.8,15.5,90.5,17.3,39.7,1.8,52.4,2.2,153.6,2.2s113.9-.4,153.6-2.2c39.7-1.8,66.8-8.1,90.5-17.3,24.5-9.5,45.3-22.3,66-43,20.7-20.7,33.5-41.5,43-66,9.2-23.7,15.5-50.8,17.3-90.5,1.8-39.7,2.2-52.4,2.2-153.6s-.4-113.9-2.2-153.6c-1.8-39.7-8.1-66.8-17.3-90.5-9.5-24.5-22.3-45.3-43-66-20.7-20.7-41.5-33.5-66-43-23.7-9.2-50.8-15.5-90.5-17.3-39.7-1.8-52.4-2.2-153.6-2.2ZM275.7,400.1c0,68.6,55.6,124.2,124.2,124.2s124.2-55.6,124.2-124.2-55.6-124.2-124.2-124.2-124.2,55.6-124.2,124.2ZM208.5,400.1c0-105.7,85.7-191.4,191.4-191.4s191.4,85.7,191.4,191.4-85.7,191.4-191.4,191.4-191.4-85.7-191.4-191.4ZM598.8,245.9c24.7,0,44.7-20,44.7-44.7s-20-44.7-44.7-44.7-44.7,20-44.7,44.7,20,44.7,44.7,44.7Z"/>
    </g>
  </g>
</svg>