<?xml version="1.0" encoding="UTF-8"?>
<svg xmlns="http://www.w3.org/2000/svg" version="1.1" viewBox="0 0 800 800">
  <defs>
    <style>
      .cls-1 {
        fill: #dacbb6;
      }
    </style>
  </defs>
  <!-- Generator: Adobe Illustrator 28.6.0, SVG Export Plug-In . SVG Version: 1.2.0 Build 709)  -->
  <g>
    <g id="_Шар_1" data-name="Шар_1">
      <g id="_Шар_1-2" data-name="_Шар_1">
        <path class="cls-1" d="M563.5,239.5h.5c5.5,0,10.7,1.7,15,4.7h0c3.1,2.7,5.2,6.4,5.6,10.6h0c.5,3.3.8,7,.8,10.8s0,3.4-.2,5.1v-.2c-5.9,62.9-31.9,215.6-45,285.9-5.5,29.9-16.6,39.8-27.2,40.8-23.1,2.1-40.6-15.2-63-29.9-35.1-22.9-54.8-37.3-88.8-59.7-39.3-25.8-13.8-40.2,8.5-63.3,5.8-6.1,107.6-98.7,109.6-107.1,0-.5.2-1.1.2-1.7,0-2.1-.7-3.9-2-5.4h0c-1.4-1-3.1-1.4-4.9-1.4s-2.3.2-3.4.6h0c-3.5.7-59.4,37.7-167.8,110.8-11.8,9.3-26.8,15.2-43,15.9h-.1c-23.1-2.8-44-8-63.7-15.2l2,.6c-25-8.1-44.7-12.4-43-26.1.8-7.1,10.7-14.4,29.5-22,115.9-50.6,193.3-83.8,231.9-99.9,42.7-22.6,92.1-41.3,144.2-53.4l4.1-.8h0v.2ZM399.2,0C178.6.5,0,179.4,0,400s179.1,400,400,400,400-179.1,400-400S621.5.5,401.1,0h-1.9Z"/>
      </g>
    </g>
  </g>
</svg>