<?xml version="1.0" encoding="UTF-8"?>
<svg xmlns="http://www.w3.org/2000/svg" version="1.1" viewBox="0 0 800 800">
  <defs>
    <style>
      .cls-1 {
        fill: #dacbb6;
        fill-rule: evenodd;
      }
    </style>
  </defs>
  <!-- Generator: Adobe Illustrator 28.6.0, SVG Export Plug-In . SVG Version: 1.2.0 Build 709)  -->
  <g>
    <g id="_Шар_1" data-name="Шар_1">
      <g id="Page-1">
        <g id="Dribbble-Light-Preview">
          <g id="icons">
            <path id="youtube-_x5B__x23_168_x5D_" class="cls-1" d="M319.5,503.4v-224.5c79.7,37.5,141.4,73.7,214.4,112.8-60.2,33.4-134.7,70.8-214.4,111.7M763.6,167.3c-13.7-18.1-37.2-32.2-62.1-36.9-73.3-13.9-530.7-13.9-604,0-20,3.8-37.8,12.8-53.1,26.9C-20,217.2.2,538.1,15.7,590c6.5,22.5,15,38.7,25.6,49.4,13.7,14.1,32.5,23.8,54,28.1,60.4,12.5,371.3,19.5,604.9,1.9,21.5-3.8,40.6-13.8,55.6-28.4,59.6-59.6,55.5-398.5,7.8-473.7"/>
          </g>
        </g>
      </g>
    </g>
  </g>
</svg>