<?xml version="1.0" encoding="UTF-8"?>
<svg xmlns="http://www.w3.org/2000/svg" version="1.1" viewBox="0 0 28 28">
  <defs>
    <style>
      .cls-1 {
        fill: #dacbb6;
      }
    </style>
  </defs>
  <!-- Generator: Adobe Illustrator 28.6.0, SVG Export Plug-In . SVG Version: 1.2.0 Build 709)  -->
  <g>
    <g id="_Шар_1" data-name="Шар_1">
      <path class="cls-1" d="M25.1,21.8l-2,.5c-.4.1-.8.4-.9.9l-.4,1.8c-.2,1-1.5,1.3-2.1.5l-3.6-4.1c-.3-.3-.1-.9.3-1,2.1-.5,4-1.7,5.4-3.4.2-.3.6-.3.9,0l2.7,2.7c.9.9.6,2.1-.3,2.3Z"/>
      <path class="cls-1" d="M2.9,21.8l2,.5c.4.1.8.4.9.9l.4,1.8c.2,1,1.5,1.3,2.1.5l3.6-4.1c.3-.3.1-.9-.3-1-2.1-.5-4-1.7-5.4-3.4-.2-.3-.6-.3-.9,0l-2.7,2.7c-.9.9-.6,2.1.3,2.3Z"/>
      <path class="cls-1" d="M14,2c-4.6,0-8.4,3.8-8.4,8.4s.5,3.3,1.4,4.7c1.3,1.9,3.3,3.3,5.7,3.6.4,0,.8.1,1.3.1s.9,0,1.3-.1c2.4-.3,4.4-1.7,5.7-3.6.9-1.3,1.4-2.9,1.4-4.7,0-4.6-3.8-8.4-8.4-8.4ZM17.7,10.1l-1,1c-.2.2-.3.5-.2.7l.3,1.2c.2,1-.3,1.4-1.2.8l-1.2-.7c-.2-.1-.6-.1-.8,0l-1.2.7c-.9.5-1.4.1-1.2-.8l.3-1.2c0-.2,0-.6-.2-.7l-1-1c-.6-.6-.4-1.2.4-1.3l1.3-.2c.2,0,.5-.2.6-.4l.7-1.4c.4-.8,1-.8,1.4,0l.7,1.4c0,.2.3.4.6.4l1.3.2c.8.1,1,.7.4,1.3Z"/>
    </g>
  </g>
</svg>