<?xml version="1.0" encoding="UTF-8"?>
<svg xmlns="http://www.w3.org/2000/svg" version="1.1" viewBox="0 0 28 28">
  <defs>
    <style>
      .cls-1 {
        fill: #dacbb6;
      }
    </style>
  </defs>
  <!-- Generator: Adobe Illustrator 28.6.0, SVG Export Plug-In . SVG Version: 1.2.0 Build 709)  -->
  <g>
    <g id="_Шар_1" data-name="Шар_1">
      <path class="cls-1" d="M21.4,5.4l-6-2.3c-.6-.2-1.6-.2-2.3,0l-6,2.3c-1.2.4-2.1,1.8-2.1,3v8.9c0,.9.6,2.1,1.3,2.6l6,4.5c1.1.8,2.8.8,3.9,0l6-4.5c.7-.5,1.3-1.7,1.3-2.6v-8.9c0-1.2-.9-2.6-2.1-3ZM18.1,11.6l-4.7,4.7c-.2.2-.4.2-.6.2s-.4,0-.6-.2l-1.8-1.8c-.3-.3-.3-.8,0-1.2.3-.3.8-.3,1.2,0l1.2,1.2,4.1-4.1c.3-.3.8-.3,1.2,0,.3.3.3.9,0,1.2Z"/>
    </g>
  </g>
</svg>