<?xml version="1.0" encoding="UTF-8"?>
<svg xmlns="http://www.w3.org/2000/svg" version="1.1" viewBox="0 0 28 28">
  <defs>
    <style>
      .cls-1 {
        fill: #dacbb6;
      }
    </style>
  </defs>
  <!-- Generator: Adobe Illustrator 28.6.0, SVG Export Plug-In . SVG Version: 1.2.0 Build 709)  -->
  <g>
    <g id="_Шар_1" data-name="Шар_1">
      <path class="cls-1" d="M9.3,17.4c.4,0,.8-.2,1.1-.5.3-.3.5-.7.5-1.1,0-.4-.2-.8-.5-1.1-.3-.3-.7-.5-1.1-.5s-.8.2-1.1.5c-.3.3-.5.7-.5,1.1,0,.4.1.8.5,1.1.3.3.7.5,1.1.5ZM18.7,17.4c.4,0,.8-.2,1.1-.5.3-.3.5-.7.5-1.1,0-.4-.2-.8-.5-1.1-.3-.3-.7-.5-1.1-.5s-.8.2-1.1.5c-.3.3-.5.7-.5,1.1,0,.4.1.8.5,1.1.3.3.7.5,1.1.5ZM4.6,24.4c-.4,0-.8-.2-1.1-.5-.3-.3-.5-.7-.5-1.1v-9.5c0-.2,0-.4,0-.5,0-.2,0-.3.1-.5l2.1-6.2c.2-.6.6-1.1,1.1-1.5.6-.4,1.2-.6,1.8-.6h11.5c.7,0,1.3.2,1.8.6.5.4.9.9,1.1,1.5l2.1,6.2c0,.2,0,.3.1.5,0,.2,0,.3,0,.5v9.5c0,.4-.2.8-.5,1.1-.3.3-.7.5-1.1.5-.4,0-.8-.2-1.1-.5s-.5-.7-.5-1.1v-1.6H6.1v1.6c0,.4-.2.8-.5,1.1-.3.3-.7.5-1.1.5ZM7.2,10.3h13.7l-1.1-3.1h-11.5l-1.1,3.1Z"/>
    </g>
  </g>
</svg>