<?xml version="1.0" encoding="UTF-8"?>
<svg xmlns="http://www.w3.org/2000/svg" version="1.1" viewBox="0 0 20 20">
  <defs>
    <style>
      .cls-1 {
        fill: #fff;
      }
    </style>
  </defs>
  <!-- Generator: Adobe Illustrator 28.6.0, SVG Export Plug-In . SVG Version: 1.2.0 Build 709)  -->
  <g>
    <g id="Layer_1">
      <path class="cls-1" d="M11.3,10l3-3c.4-.4.4-1,0-1.3s-1-.4-1.3,0l-3,3-3-3c-.4-.4-1-.4-1.3,0s-.4,1,0,1.3l3,3-3,3c-.4.4-.4,1,0,1.3.4.4,1,.4,1.3,0l3-3,3,3c.4.4,1,.4,1.3,0,.4-.4.4-1,0-1.3l-3-3Z"/>
    </g>
  </g>
</svg>