<?xml version="1.0" encoding="UTF-8"?>
<svg xmlns="http://www.w3.org/2000/svg" version="1.1" xmlns:xlink="http://www.w3.org/1999/xlink" viewBox="0 0 1071 1024">
  <defs>
    <style>
      .cls-1 {
        fill: #fff;
      }

      .cls-2 {
        display: none;
      }
    </style>
  </defs>
  <!-- Generator: Adobe Illustrator 28.6.0, SVG Export Plug-In . SVG Version: 1.2.0 Build 709)  -->
  <g>
    <g id="_Шар_1" data-name="Шар_1" class="cls-2">
      <g class="cls-2">
        <path class="cls-1" d="M151,315c30.4-90.1,98.9-139.5,131-162,51.8-36.3,99.2-50.7,124-58,96.9-28.5,177.2-17.4,203-13,37.5,6.3,105.4,18.6,174,70,21.2,15.9,74.3,56.7,108,132,31.8,71,28.7,133,28,145-5.6,91-52.2,151.8-69,173-37.1,47-77.6,71.4-99,84-23.3,13.8-76.7,44.5-149,51-71.2,6.4-127,4-127,4-16.9-.7-36.8-2.1-59,8-15.5,7.1-27.3,17.6-48,36,0,0-18.1,16.1-47,33-6.5,3.8-9.4,5.2-12,4-7.7-3.5-4.5-25.7,1-91,1.7-20,2.6-32.6-5-45-7.5-12.3-19-17.5-26-21,0,0-31.1-15.5-75-62-25.2-26.6-35.4-54-47-85-20.1-53.7-20.9-97.9-21-107-.4-45.9,10-81,15-96Z"/>
        <path d="M395.7,434.5c0,25.7-18.4,47.8-47.8,47.8s-47.8-22-47.8-47.8,22-47.8,47.8-47.8,47.8,22,47.8,47.8ZM943.1,408.8c0-198.4-183.7-360-411.5-360S116.5,210.4,116.5,408.8s66.1,227.8,176.3,293.9v113.9c0,11,7.3,18.4,14.7,22h7.3c7.3,0,11,0,14.7-3.7l51.4-33.1,3.7-3.7,58.8-36.7c29.4,3.7,58.8,7.3,88.2,7.3,227.8,0,411.5-161.6,411.5-360h0ZM325.9,673.3c-102.9-58.8-165.3-158-165.3-264.5,0-172.7,165.3-315.9,371.1-315.9s367.4,143.3,367.4,315.9-165.3,315.9-367.4,315.9-58.8-3.7-88.2-7.3c-7.3-3.7-14.7,0-18.4,0l-69.8,47.8-18.4,11v-84.5c0-7.3-3.7-14.7-11-18.4h0ZM586.7,423.5c0,25.7-22,47.8-47.8,47.8s-47.8-22-47.8-47.8,22-47.8,47.8-47.8,47.8,18.4,47.8,47.8ZM770.4,423.5c0,25.7-18.4,47.8-47.8,47.8s-47.8-22-47.8-47.8,22-47.8,47.8-47.8,47.8,18.4,47.8,47.8Z"/>
      </g>
      <image width="980" height="834" transform="translate(55 43)" xlink:href="D:\Downloads\PikPng.com_to-be-continued-jojo_3136386.png"/>
    </g>
    <g id="_Шар_2" data-name="Шар_2">
      <path class="cls-1" d="M131,542c-18.2-19.3-75.8-85.1-76-179,0-49.9,16.1-88.8,23-105,23.7-55.4,58.5-88.6,76-105C265.4,48.8,421.7,44.1,457,43c136.7-4.2,232.6,45.9,253,57,18.2,9.9,72.1,40.9,113,91,10.5,12.8,31.6,39.1,47,79,3.8,9.7,6.3,18.1,8,24-8.6-2.2-21.4-5.3-37-9-34.2-8.1-61.8-14.6-81-18-47.4-8.3-86.1-4.6-113-2-63.7,6.1-110,22.9-121,27-27.4,10.2-67.2,25.5-110,60-51.2,41.3-76.4,85.9-82,96-10.8,19.6-28.5,52.6-34,100-5.5,47.3,4,85.6,11,107-15.7-5.7-31.3-11.3-47-17-69.7,30.3-139.3,60.7-209,91l63-162c4.3-8.3,8.7-16.7,13-25Z"/>
      <path class="cls-1" d="M1040.9,579.9c0,55.5-22.4,107-60.5,149.5l-111.2,78.8c-50.4,22.4-108.9,35.1-171.2,35.1-189.4,0-343-118-343-263.5s153.6-263.5,343-263.5,343,118,343,263.5Z"/>
      <path class="cls-1" d="M1035,877l-171.8-74.1c44.3-19.6,82.3-46.6,111.2-78.8l60.5,153Z"/>
    </g>
  </g>
</svg>