<?xml version="1.0" encoding="UTF-8"?>
<svg xmlns="http://www.w3.org/2000/svg" version="1.1" viewBox="0 0 800 800">
  <defs>
    <style>
      .cls-1 {
        fill: #dacbb6;
      }

      .cls-2 {
        fill: none;
        stroke: #dacbb6;
        stroke-linecap: round;
        stroke-linejoin: round;
        stroke-width: 50px;
      }
    </style>
  </defs>
  <!-- Generator: Adobe Illustrator 28.6.0, SVG Export Plug-In . SVG Version: 1.2.0 Build 709)  -->
  <g>
    <g id="_Шар_1" data-name="Шар_1">
      <path class="cls-2" d="M145.4,235.2c29.7-75.3,65.4-127.3,146.2-127.3h216.7c80.8,0,116.5,52,146.2,127.3l29.7,80.6c22.1.3,42.4,12.6,53.4,32.3,6.4,11.2,9.8,24,9.8,37.1v103.9c.3,24.3-11.7,47-31.6,60-9.5,6.1-20.4,9.3-31.6,9.3H115.7c-11.2,0-22.1-3.2-31.6-9.3-19.9-13.1-31.9-35.8-31.6-60v-103.9c0-13,3.3-25.8,9.8-37,11-19.7,31.3-32,53.4-32.3l29.7-80.6h0Z"/>
      <path class="cls-1" d="M208.6,558.4c0-16.4-13.3-29.7-29.7-29.7s-29.7,13.3-29.7,29.7h59.4ZM178.9,610.4h-29.7v.9l29.7-.9ZM131.5,662.3l-1.1,29.7h2.1l-1-29.7ZM84.1,610.3l29.7,1v-1h-29.7ZM113.8,549.1c0-16.4-13.3-29.7-29.7-29.7s-29.7,13.3-29.7,29.7h59.4ZM115.7,286.1c-16.4,0-29.7,13.3-29.7,29.7s13.3,29.7,29.7,29.7v-59.4h0ZM684.3,345.5c16.4,0,29.7-13.3,29.7-29.7s-13.3-29.7-29.7-29.7v59.4h0ZM650.8,558.3c0-16.4-13.3-29.7-29.7-29.7s-29.7,13.3-29.7,29.7h59.4ZM621.1,610.3l29.6,1.8v-1.8h-29.7.1ZM643.9,655.1l15.7-25.2h0l-15.7,25.2ZM693.1,655.1l-15.7-25.2h0l15.7,25.2ZM715.9,610.3h-29.7v1.8l29.6-1.8h.1ZM745.6,549.1c0-16.4-13.3-29.7-29.7-29.7s-29.7,13.3-29.7,29.7h59.4ZM168.4,414.8c-16.4,0-29.7,13.3-29.7,29.7s13.3,29.7,29.7,29.7v-59.4h0ZM207,474.2c16.4,0,29.7-13.3,29.7-29.7s-13.3-29.7-29.7-29.7v59.4h0ZM593,414.8c-16.4,0-29.7,13.3-29.7,29.7s13.3,29.7,29.7,29.7v-59.4h0ZM631.6,474.2c16.4,0,29.7-13.3,29.7-29.7s-13.3-29.7-29.7-29.7v59.4h0ZM149.2,558.4v52h59.4v-52h-59.4ZM149.2,611.3c.4,12.1-8.7,21-18.8,21.3l2.1,59.4c44.1-1.5,77.4-39.2,76.1-82.6l-59.4,1.9h0ZM132.6,632.6c-10-.4-19.1-9.2-18.7-21.4l-59.4-1.9c-1.4,43.4,31.9,81,76,82.6l2.1-59.4h0ZM113.8,610.3v-61.3h-59.4v61.3h59.4ZM115.7,345.5h568.6v-59.4H115.7v59.4ZM591.4,558.3v52h59.4v-52h-59.4ZM591.5,608.5c-1.8,28.8,12.1,56.5,36.7,71.8l31.4-50.4c-5.6-3.5-9.3-10.2-8.8-17.7l-59.3-3.7h0ZM628.2,680.3c24.7,15.4,55.9,15.4,80.6,0l-31.4-50.4c-5.5,3.4-12.3,3.4-17.9,0l-31.4,50.4h.1ZM708.8,680.3c24.6-15.3,38.5-43.1,36.7-71.8l-59.3,3.7c.5,7.5-3.2,14.2-8.8,17.7l31.4,50.4h0ZM745.6,610.3v-61.3h-59.4v61.3h59.4ZM168.4,474.2h38.6v-59.4h-38.6v59.4ZM593,474.2h38.6v-59.4h-38.6v59.4Z"/>
    </g>
  </g>
</svg>