<?xml version="1.0" encoding="UTF-8"?>
<svg xmlns="http://www.w3.org/2000/svg" version="1.1" viewBox="0 0 18 18">
  <defs>
    <style>
      .cls-1 {
        fill: none;
        stroke: #dacbb6;
        stroke-linecap: round;
        stroke-miterlimit: 3;
        stroke-width: 1.2px;
      }
    </style>
  </defs>
  <!-- Generator: Adobe Illustrator 28.6.0, SVG Export Plug-In . SVG Version: 1.2.0 Build 709)  -->
  <g>
    <g id="_Шар_1" data-name="Шар_1">
      <g id="_Шар_1-2" data-name="_Шар_1">
        <g id="_Шар_1-2">
          <path class="cls-1" d="M2.2,6.8h13.5M5.2,2.2v1.5M12.8,2.2v1.5M4.5,9h1.5M8.2,9h1.5M12,9h1.5M4.5,11.2h1.5M8.2,11.2h1.5M12,11.2h1.5M4.5,13.5h1.5M8.2,13.5h1.5M12,13.5h1.5M4.6,15.8h8.7c.8,0,1.3,0,1.6-.2.3-.1.5-.4.7-.7s.2-.7.2-1.6v-7.2c0-.8,0-1.3-.2-1.6-.1-.3-.4-.5-.7-.7s-.7-.2-1.6-.2H4.6c-.8,0-1.3,0-1.6.2-.3,0-.5.4-.7.7s-.2.7-.2,1.6v7.2c0,.8,0,1.3.2,1.6,0,.3.4.5.7.7s.7.2,1.6.2Z"/>
        </g>
      </g>
    </g>
  </g>
</svg>