<?xml version="1.0" encoding="UTF-8"?>
<svg xmlns="http://www.w3.org/2000/svg" version="1.1" viewBox="0 0 18 18">
  <defs>
    <style>
      .cls-1 {
        fill: #dacbb6;
        fill-rule: evenodd;
      }
    </style>
  </defs>
  <!-- Generator: Adobe Illustrator 28.6.0, SVG Export Plug-In . SVG Version: 1.2.0 Build 709)  -->
  <g>
    <g id="_Шар_1" data-name="Шар_1">
      <g id="_Шар_1-2" data-name="_Шар_1">
        <g id="Layer_1">
          <path class="cls-1" d="M6.4,15.6l-1.7-1.7h-1.2c-.4,0-.7-.3-.7-.7v-1.3h-.7v1.5c0,.3-.3.6-.6.6h-.9c-.3,0-.6-.3-.6-.6v-5.1c0-.3.3-.6.6-.6h.9c.3,0,.6.3.6.6v1.5h.7v-1.4c0-.4.3-.7.7-.7h1.3l1.8-1.9c.2-.2.5-.2.8-.2h7.3c.3,0,.4,0,.6.3.1.2,0,.3,0,.5v3.4h.7v-1.5c0-.3.3-.6.6-.6h.9c.3,0,.6.3.6.6v5.1c0,.3-.3.6-.6.6h-.9c-.3,0-.6-.3-.6-.6v-1.5h-.7c0,.5,0,.8-.2,1.1l-.2.2-2.6,2.6c-.1.1-.3.2-.6.2h-4.5c-.3,0-.6-.1-.8-.4h0ZM9.3,11.1l-1.9-.2,1.5-3.4h2.1l-1.2,1.9,2.1.2-3.9,4.7,1.2-3.3h.1ZM7.6,2.1h5.1c.3,0,.6.3.6.6v.9c0,.3-.3.6-.6.6h-1.5v.7h-2.1v-.7h-1.5c-.3,0-.6-.3-.6-.6v-.9c0-.3.3-.6.6-.6h0Z"/>
        </g>
      </g>
    </g>
  </g>
</svg>