<?xml version="1.0" encoding="UTF-8"?>
<svg xmlns="http://www.w3.org/2000/svg" version="1.1" viewBox="0 0 18 18">
  <defs>
    <style>
      .cls-1 {
        fill: #dacbb6;
      }
    </style>
  </defs>
  <!-- Generator: Adobe Illustrator 28.6.0, SVG Export Plug-In . SVG Version: 1.2.0 Build 709)  -->
  <g>
    <g id="_Шар_1" data-name="Шар_1">
      <g id="_Шар_1-2" data-name="_Шар_1">
        <g id="_Шар_1-2">
          <path class="cls-1" d="M9,15.8c3.7,0,6.8-3,6.8-6.8s-3-6.8-6.8-6.8-6.8,3-6.8,6.8,3,6.8,6.8,6.8ZM9,16.9c-4.3,0-7.9-3.5-7.9-7.9S4.7,1.1,9,1.1s7.9,3.5,7.9,7.9-3.5,7.9-7.9,7.9Z"/>
          <path class="cls-1" d="M3.4,9c0-3.1,2.5-5.6,5.6-5.6s5.6,2.5,5.6,5.6-.3.6-.6.6-.6-.3-.6-.6c0-2.5-2-4.5-4.5-4.5s-4.5,2-4.5,4.5-.3.6-.6.6-.6-.3-.6-.6h.2Z"/>
          <path class="cls-1" d="M10,11c.7.6.9,1.6.3,2.4-.6.7-1.6.9-2.4.3-.7-.6-.9-1.6-.3-2.4.3-.4.8-.6,1.3-.7l1.1-3.3c0-.3.4-.5.7-.4.3,0,.5.4.4.7h0l-1.1,3.3h0ZM8.8,12.9c.3,0,.6,0,.7-.4,0-.3,0-.6-.4-.7-.3,0-.6,0-.7.4,0,.3,0,.6.4.7h0Z"/>
        </g>
      </g>
    </g>
  </g>
</svg>