<?xml version="1.0" encoding="UTF-8"?>
<svg xmlns="http://www.w3.org/2000/svg" version="1.1" viewBox="0 0 18 18">
  <defs>
    <style>
      .cls-1, .cls-2 {
        fill: #dacbb6;
      }

      .cls-2 {
        fill-rule: evenodd;
      }
    </style>
  </defs>
  <!-- Generator: Adobe Illustrator 28.6.0, SVG Export Plug-In . SVG Version: 1.2.0 Build 709)  -->
  <g>
    <g id="_Шар_1" data-name="Шар_1">
      <g id="_Шар_1-2" data-name="_Шар_1">
        <g id="_Шар_1-2">
          <g>
            <path class="cls-1" d="M.8,2.4c0-.9.7-1.6,1.6-1.6s1.6.7,1.6,1.6-.4,1.2-1,1.5v4.3h5.1V3.8c-.6-.2-1-.8-1-1.5s.7-1.6,1.6-1.6,1.6.7,1.6,1.6-.4,1.2-1,1.5v4.3h4.3c.4,0,.5-.1.6-.2.1,0,.2-.3.2-.6v-3.4c-.6-.2-1-.8-1-1.5s.7-1.6,1.6-1.6,1.6.7,1.6,1.6-.4,1.2-1,1.5v3.5c0,.5-.2.9-.6,1.3s-.8.5-1.3.6h-4.4v4.3c.6.2,1,.8,1,1.5s-.7,1.6-1.6,1.6-1.6-.7-1.6-1.6.4-1.2,1-1.5v-4.3H3v4.3c.6.2,1,.8,1,1.5s-.7,1.6-1.6,1.6-1.6-.7-1.6-1.6.4-1.2,1-1.5V3.8c-.6-.2-1-.8-1-1.5h0Z"/>
            <path class="cls-2" d="M12.9,11.1c0-.3.3-.6.6-.6h1.8c1.1,0,2,.9,2,2s-.5,1.6-1.3,1.9l1.2,2c.2.3,0,.6-.2.8-.3.2-.6,0-.8-.2l-1.5-2.5h-.5v2.2c0,.3-.3.6-.6.6s-.6-.3-.6-.6v-5.5h0ZM14,13.3h1.2c.4,0,.8-.3.8-.8s-.4-.8-.8-.8h-1.2v1.6Z"/>
          </g>
        </g>
      </g>
    </g>
  </g>
</svg>